<svg width="33" height="32" viewBox="0 0 33 32" fill="none" xmlns="http://www.w3.org/2000/svg">
<path d="M11.2668 10.6666H9.63615C7.90281 10.6666 7.03748 10.6666 6.42282 11.0199C5.88148 11.3306 5.46548 11.8199 5.24815 12.4053C5.00148 13.0706 5.14282 13.9253 5.42815 15.6319V15.6346L6.67215 23.1013C6.88415 24.3679 6.98948 25.0013 7.30548 25.4773C7.58548 25.8959 7.97615 26.2266 8.43481 26.4333C8.95481 26.6666 9.59748 26.6666 10.8815 26.6666H22.3188C23.6028 26.6666 24.2441 26.6666 24.7655 26.4333C25.2241 26.2266 25.6162 25.8959 25.8948 25.4773C26.2108 25.0013 26.3161 24.3679 26.5268 23.1013L27.7721 15.6346V15.6293C28.0575 13.9226 28.1988 13.0693 27.9521 12.4053C27.7351 11.8205 27.3199 11.3303 26.7788 11.0199C26.1642 10.6666 25.2975 10.6666 23.5641 10.6666H21.9335M11.2668 10.6666H21.9335M11.2668 10.6666C11.2668 9.2521 11.8287 7.89554 12.8289 6.89535C13.8291 5.89515 15.1857 5.33325 16.6001 5.33325C18.0146 5.33325 19.3712 5.89515 20.3714 6.89535C21.3716 7.89554 21.9335 9.2521 21.9335 10.6666" stroke="#020126" stroke-width="2" stroke-linecap="round" stroke-linejoin="round"/>
</svg>
