<svg width="33" height="32" viewBox="0 0 33 32" fill="none" xmlns="http://www.w3.org/2000/svg">
<path d="M16.4 4C14.0267 4 11.7066 4.70379 9.73319 6.02236C7.7598 7.34094 6.22173 9.21509 5.31348 11.4078C4.40522 13.6005 4.16758 16.0133 4.63061 18.3411C5.09363 20.6689 6.23652 22.8071 7.91475 24.4853C9.59298 26.1635 11.7312 27.3064 14.0589 27.7694C16.3867 28.2324 18.7995 27.9948 20.9922 27.0866C23.1849 26.1783 25.0591 24.6402 26.3777 22.6668C27.6962 20.6935 28.4 18.3734 28.4 16M16.4 4C19.5826 4 22.6349 5.26428 24.8853 7.51472C27.1357 9.76516 28.4 12.8174 28.4 16M16.4 4V16M28.4 16H16.4M16.4 16L24.4 24.6667" stroke="#020126" stroke-width="2" stroke-linecap="round" stroke-linejoin="round"/>
</svg>
