<svg width="27" height="29" viewBox="0 0 27 29" fill="none" xmlns="http://www.w3.org/2000/svg">
<g filter="url(#filter0_dd_306_3720)">
<path d="M13 15V11M22 8L20 6M11 4H15M13 23C10.8783 23 8.84344 22.1571 7.34315 20.6569C5.84285 19.1566 5 17.1217 5 15C5 12.8783 5.84285 10.8434 7.34315 9.34315C8.84344 7.84285 10.8783 7 13 7C15.1217 7 17.1566 7.84285 18.6569 9.34315C20.1571 10.8434 21 12.8783 21 15C21 17.1217 20.1571 19.1566 18.6569 20.6569C17.1566 22.1571 15.1217 23 13 23Z" stroke="#FABC00" stroke-width="2" stroke-linecap="round" stroke-linejoin="round" shape-rendering="crispEdges"/>
</g>
<defs>
<filter id="filter0_dd_306_3720" x="0" y="0" width="27" height="29" filterUnits="userSpaceOnUse" color-interpolation-filters="sRGB">
<feFlood flood-opacity="0" result="BackgroundImageFix"/>
<feColorMatrix in="SourceAlpha" type="matrix" values="0 0 0 0 0 0 0 0 0 0 0 0 0 0 0 0 0 0 127 0" result="hardAlpha"/>
<feOffset dy="1"/>
<feGaussianBlur stdDeviation="2"/>
<feComposite in2="hardAlpha" operator="out"/>
<feColorMatrix type="matrix" values="0 0 0 0 0.0470588 0 0 0 0 0.0470588 0 0 0 0 0.0509804 0 0 0 0.05 0"/>
<feBlend mode="normal" in2="BackgroundImageFix" result="effect1_dropShadow_306_3720"/>
<feColorMatrix in="SourceAlpha" type="matrix" values="0 0 0 0 0 0 0 0 0 0 0 0 0 0 0 0 0 0 127 0" result="hardAlpha"/>
<feOffset dy="1"/>
<feGaussianBlur stdDeviation="2"/>
<feComposite in2="hardAlpha" operator="out"/>
<feColorMatrix type="matrix" values="0 0 0 0 0.0470588 0 0 0 0 0.0470588 0 0 0 0 0.0509804 0 0 0 0.1 0"/>
<feBlend mode="normal" in2="effect1_dropShadow_306_3720" result="effect2_dropShadow_306_3720"/>
<feBlend mode="normal" in="SourceGraphic" in2="effect2_dropShadow_306_3720" result="shape"/>
</filter>
</defs>
</svg>
