<svg width="41" height="44" viewBox="0 0 41 44" fill="none" xmlns="http://www.w3.org/2000/svg">
<g filter="url(#filter0_dd_2003_3008)">
<path d="M20 23.6668V17.0002M35 12.0002L31.6667 8.66683M16.6667 5.3335H23.3333M20 37.0002C16.4638 37.0002 13.0724 35.5954 10.5719 33.0949C8.07141 30.5944 6.66666 27.203 6.66666 23.6668C6.66666 20.1306 8.07141 16.7392 10.5719 14.2387C13.0724 11.7383 16.4638 10.3335 20 10.3335C23.5362 10.3335 26.9276 11.7383 29.4281 14.2387C31.9286 16.7392 33.3333 20.1306 33.3333 23.6668C33.3333 27.203 31.9286 30.5944 29.4281 33.0949C26.9276 35.5954 23.5362 37.0002 20 37.0002Z" stroke="#FABC00" stroke-width="4" stroke-linecap="round" stroke-linejoin="round" shape-rendering="crispEdges"/>
</g>
<defs>
<filter id="filter0_dd_2003_3008" x="0.666656" y="0.333496" width="40.3333" height="43.6665" filterUnits="userSpaceOnUse" color-interpolation-filters="sRGB">
<feFlood flood-opacity="0" result="BackgroundImageFix"/>
<feColorMatrix in="SourceAlpha" type="matrix" values="0 0 0 0 0 0 0 0 0 0 0 0 0 0 0 0 0 0 127 0" result="hardAlpha"/>
<feOffset dy="1"/>
<feGaussianBlur stdDeviation="2"/>
<feComposite in2="hardAlpha" operator="out"/>
<feColorMatrix type="matrix" values="0 0 0 0 0.0470588 0 0 0 0 0.0470588 0 0 0 0 0.0509804 0 0 0 0.05 0"/>
<feBlend mode="normal" in2="BackgroundImageFix" result="effect1_dropShadow_2003_3008"/>
<feColorMatrix in="SourceAlpha" type="matrix" values="0 0 0 0 0 0 0 0 0 0 0 0 0 0 0 0 0 0 127 0" result="hardAlpha"/>
<feOffset dy="1"/>
<feGaussianBlur stdDeviation="2"/>
<feComposite in2="hardAlpha" operator="out"/>
<feColorMatrix type="matrix" values="0 0 0 0 0.0470588 0 0 0 0 0.0470588 0 0 0 0 0.0509804 0 0 0 0.1 0"/>
<feBlend mode="normal" in2="effect1_dropShadow_2003_3008" result="effect2_dropShadow_2003_3008"/>
<feBlend mode="normal" in="SourceGraphic" in2="effect2_dropShadow_2003_3008" result="shape"/>
</filter>
</defs>
</svg>
