<svg width="33" height="32" viewBox="0 0 33 32" fill="none" xmlns="http://www.w3.org/2000/svg">
<path d="M7.52001 7.6079L8.51923 7.5684L8.5192 7.56764L7.52001 7.6079ZM8.05334 4.29456L8.82901 4.9257L8.83019 4.92426L8.05334 4.29456ZM10.964 3.12923L10.8024 2.14237L10.7978 2.14314L10.964 3.12923ZM16.8 2.66656L16.7959 3.66656H16.8V2.66656ZM22.636 3.12923L22.4693 4.11524L22.4698 4.11532L22.636 3.12923ZM26.0813 7.6079L27.0806 7.64739L27.0806 7.64736L26.0813 7.6079ZM27.3987 7.0879L27.7149 6.13921L27.7146 6.13911L27.3987 7.0879ZM28.076 14.4772L28.5615 15.3515L28.5627 15.3508L28.076 14.4772ZM6.20134 7.0879L5.88541 6.13911L5.88511 6.13921L6.20134 7.0879ZM5.52401 14.4772L5.03728 15.3508L5.03854 15.3515L5.52401 14.4772ZM15.8 25.3332C15.8 25.8855 16.2477 26.3332 16.8 26.3332C17.3523 26.3332 17.8 25.8855 17.8 25.3332H15.8ZM21.4667 29.3332V30.3332C21.7663 30.3332 22.0502 30.1988 22.2402 29.967C22.4301 29.7353 22.5061 29.4305 22.4472 29.1367L21.4667 29.3332ZM12.1333 29.3332L11.1529 29.1367C11.0939 29.4305 11.1699 29.7353 11.3599 29.967C11.5498 30.1988 11.8337 30.3332 12.1333 30.3332V29.3332ZM12.5867 27.0719L13.5672 27.2685L13.5673 27.2679L12.5867 27.0719ZM13.8933 25.9999L13.8933 24.9999L13.8927 24.9999L13.8933 25.9999ZM19.7067 25.9999L19.7073 24.9999H19.7067V25.9999ZM21.0133 27.0719L20.0327 27.2679L20.0329 27.2685L21.0133 27.0719ZM24.8 30.3332C25.3523 30.3332 25.8 29.8855 25.8 29.3332C25.8 28.7809 25.3523 28.3332 24.8 28.3332V30.3332ZM8.80001 28.3332C8.24772 28.3332 7.80001 28.7809 7.80001 29.3332C7.80001 29.8855 8.24772 30.3332 8.80001 30.3332V28.3332ZM16.8 21.3332V20.3332C15.0545 20.3332 13.7285 19.9013 12.7008 19.212C11.6664 18.5182 10.8724 17.522 10.2653 16.302C9.03519 13.8305 8.63828 10.5805 8.51923 7.5684L7.52001 7.6079L6.52079 7.64739C6.64173 10.7073 7.04482 14.32 8.47476 17.1931C9.19757 18.6455 10.1987 19.942 11.5867 20.873C12.9815 21.8085 14.7055 22.3332 16.8 22.3332V21.3332ZM7.52001 7.6079L8.5192 7.56764C8.44644 5.76146 8.48023 5.35435 8.82901 4.9257L8.05334 4.29456L7.27767 3.66342C6.35712 4.79477 6.45758 6.07833 6.52082 7.64815L7.52001 7.6079ZM8.05334 4.29456L8.83019 4.92426C9.18364 4.48821 9.52049 4.38667 11.1302 4.11532L10.964 3.12923L10.7978 2.14314C9.37019 2.38379 8.18971 2.53825 7.2765 3.66487L8.05334 4.29456ZM10.964 3.12923L11.1257 4.11608C13 3.80905 14.8966 3.65869 16.7959 3.66655L16.8 2.66656L16.8041 1.66657C14.7938 1.65824 12.7863 1.8174 10.8024 2.14238L10.964 3.12923ZM16.8 2.66656V3.66656C19.1198 3.66656 21.0227 3.8707 22.4693 4.11524L22.636 3.12923L22.8027 2.14322C21.252 1.88109 19.2375 1.66656 16.8 1.66656V2.66656ZM22.636 3.12923L22.4698 4.11532C24.0791 4.38659 24.4169 4.48812 24.7718 4.92505L25.548 4.29456L26.3242 3.66407C25.4098 2.53834 24.2303 2.38386 22.8022 2.14314L22.636 3.12923ZM25.548 4.29456L24.7718 4.92505C25.1213 5.3553 25.1535 5.76106 25.0821 7.56843L26.0813 7.6079L27.0806 7.64736C27.1425 6.07873 27.2441 4.79649 26.3242 3.66407L25.548 4.29456ZM26.0813 7.6079L25.0821 7.5684C24.9631 10.5805 24.5662 13.8305 23.3361 16.302C22.7289 17.522 21.935 18.5182 20.9006 19.212C19.8728 19.9013 18.5468 20.3332 16.8013 20.3332V21.3332V22.3332C18.8959 22.3332 20.6199 21.8085 22.0146 20.873C23.4027 19.942 24.4038 18.6455 25.1266 17.1931C26.5565 14.32 26.9596 10.7073 27.0806 7.64739L26.0813 7.6079ZM16.8013 21.3332V20.3332H16.8V21.3332V22.3332H16.8013V21.3332ZM26.1333 6.66656L25.8174 7.61535L27.0827 8.03668L27.3987 7.0879L27.7146 6.13911L26.4493 5.71778L26.1333 6.66656ZM27.3987 7.0879L27.0824 8.03658C27.7643 8.26387 28.1955 8.4092 28.509 8.55505C28.7991 8.69004 28.8923 8.78374 28.9445 8.85625L29.756 8.2719L30.5675 7.68754C30.2424 7.23605 29.8169 6.95775 29.3527 6.74174C28.9118 6.5366 28.353 6.35192 27.7149 6.13921L27.3987 7.0879ZM29.756 8.2719L28.9445 8.85625C28.9968 8.92884 29.0563 9.04751 29.0926 9.36606C29.1318 9.70987 29.1333 10.1649 29.1333 10.8826H30.1333H31.1333C31.1333 10.2109 31.1348 9.62259 31.0797 9.1394C31.0217 8.63095 30.8926 8.13895 30.5675 7.68754L29.756 8.2719ZM30.1333 10.8826H29.1333V10.9799H30.1333H31.1333V10.8826H30.1333ZM30.1333 10.9799H29.1333C29.1333 11.5729 29.1322 11.9453 29.1038 12.2299C29.0776 12.4925 29.0343 12.5973 28.9953 12.6636L29.8573 13.1706L30.7193 13.6775C30.9563 13.2745 31.0511 12.8573 31.0939 12.4285C31.1345 12.0218 31.1333 11.5335 31.1333 10.9799H30.1333ZM29.8573 13.1706L28.9953 12.6636C28.9566 12.7296 28.8862 12.8181 28.669 12.9689C28.4335 13.1324 28.1083 13.3145 27.5893 13.6037L28.076 14.4772L28.5627 15.3508C29.0464 15.0813 29.4739 14.8448 29.8094 14.6119C30.1631 14.3664 30.4821 14.0809 30.7193 13.6775L29.8573 13.1706ZM28.076 14.4772L27.5905 13.603L23.6479 15.7923L24.1333 16.6666L24.6188 17.5408L28.5615 15.3515L28.076 14.4772ZM7.46667 6.66656L7.15075 5.71778L5.88541 6.13911L6.20134 7.0879L6.51727 8.03668L7.7826 7.61535L7.46667 6.66656ZM6.20134 7.0879L5.88511 6.13921C5.24698 6.35192 4.68818 6.5366 4.2473 6.74174C3.78307 6.95775 3.35763 7.23605 3.03251 7.68754L3.84401 8.2719L4.6555 8.85625C4.70772 8.78374 4.80095 8.69004 5.09105 8.55505C5.4045 8.4092 5.8357 8.26387 6.51757 8.03658L6.20134 7.0879ZM3.84401 8.2719L3.03251 7.68754C2.70745 8.13895 2.57828 8.63095 2.52028 9.1394C2.46517 9.62259 2.46667 10.2109 2.46667 10.8826H3.46667H4.46667C4.46667 10.1649 4.46818 9.70987 4.5074 9.36606C4.54373 9.04751 4.60324 8.92884 4.6555 8.85625L3.84401 8.2719ZM3.46667 10.8826H2.46667V10.9799H3.46667H4.46667V10.8826H3.46667ZM3.46667 10.9799H2.46667C2.46667 11.5335 2.46553 12.0218 2.50612 12.4285C2.54891 12.8573 2.64368 13.2745 2.88068 13.6775L3.74267 13.1706L4.60467 12.6636C4.56567 12.5973 4.52244 12.4925 4.49623 12.2299C4.46782 11.9453 4.46667 11.5729 4.46667 10.9799H3.46667ZM3.74267 13.1706L2.88068 13.6775C3.11791 14.0809 3.43689 14.3664 3.79064 14.6119C4.12613 14.8448 4.55364 15.0813 5.03728 15.3508L5.52401 14.4772L6.01074 13.6037C5.49171 13.3145 5.16655 13.1324 4.93105 12.9689C4.71379 12.8181 4.64344 12.7296 4.60467 12.6636L3.74267 13.1706ZM5.52401 14.4772L5.03854 15.3515L8.98121 17.5408L9.46667 16.6666L9.95214 15.7923L6.00948 13.603L5.52401 14.4772ZM16.8 21.3332H15.8V25.3332H16.8H17.8V21.3332H16.8ZM21.4667 29.3332V28.3332H12.1333V29.3332V30.3332H21.4667V29.3332ZM12.1333 29.3332L13.1138 29.5298L13.5672 27.2685L12.5867 27.0719L11.6062 26.8753L11.1529 29.1367L12.1333 29.3332ZM12.5867 27.0719L13.5673 27.2679C13.5824 27.1924 13.6232 27.1244 13.6827 27.0755L13.0485 26.3024L12.4142 25.5293C11.9973 25.8713 11.7118 26.3471 11.6061 26.8759L12.5867 27.0719ZM13.0485 26.3024L13.6827 27.0755C13.7423 27.0267 13.8169 26.9999 13.8939 26.9999L13.8933 25.9999L13.8927 24.9999C13.3535 25.0002 12.8311 25.1873 12.4142 25.5293L13.0485 26.3024ZM13.8933 25.9999V26.9999H19.7067V25.9999V24.9999H13.8933V25.9999ZM19.7067 25.9999L19.7061 26.9999C19.7831 26.9999 19.8577 27.0267 19.9173 27.0755L20.5516 26.3024L21.1858 25.5293C20.769 25.1873 20.2465 25.0002 19.7073 24.9999L19.7067 25.9999ZM20.5516 26.3024L19.9173 27.0755C19.9768 27.1244 20.0176 27.1924 20.0327 27.2679L21.0133 27.0719L21.9939 26.8759C21.8883 26.3471 21.6027 25.8713 21.1858 25.5293L20.5516 26.3024ZM21.0133 27.0719L20.0329 27.2685L20.4862 29.5298L21.4667 29.3332L22.4472 29.1367L21.9938 26.8753L21.0133 27.0719ZM24.8 29.3332V28.3332H8.80001V29.3332V30.3332H24.8V29.3332Z" fill="#020126"/>
</svg>
