<svg width="32" height="32" viewBox="0 0 32 32" fill="none" xmlns="http://www.w3.org/2000/svg">
<path d="M15.9767 13.3335C16.0117 13.3335 16.0466 13.3335 16.0826 13.3335C16.6613 13.3356 17.206 13.385 17.7635 13.5516C17.8004 13.5623 17.8373 13.573 17.8753 13.584C18.4166 13.7444 18.9158 13.9691 19.4081 14.2496C19.4389 14.267 19.4696 14.2844 19.5013 14.3024C20.2267 14.7188 20.8429 15.2541 21.4398 15.845C21.4832 15.8877 21.5266 15.9304 21.5713 15.9744C21.8576 16.2622 22.112 16.568 22.3589 16.892C22.3971 16.9412 22.4354 16.9904 22.4749 17.041C22.9869 17.7095 23.4267 18.4315 23.81 19.1855C23.8336 19.2316 23.8572 19.2777 23.8815 19.3252C24.879 21.3001 25.7705 23.9398 25.1008 26.1639C24.7101 27.3602 23.9753 28.2452 22.897 28.8341C22.2176 29.17 21.5036 29.324 20.7535 29.3284C20.7047 29.33 20.6559 29.3317 20.6056 29.3334C19.9244 29.3382 19.3296 29.0636 18.7392 28.7416C17.5367 28.0879 16.3324 27.5106 14.9582 27.936C14.3339 28.1466 13.7443 28.4643 13.1554 28.7609C13.1063 28.7855 13.0572 28.8101 13.0066 28.8354C12.9138 28.882 12.8214 28.9291 12.7291 28.9767C12.2338 29.2267 11.7818 29.3339 11.2302 29.3284C11.1776 29.328 11.1249 29.3277 11.0707 29.3274C9.74595 29.3005 8.60321 28.7311 7.68292 27.7598C6.70488 26.6082 6.61309 25.1258 6.68618 23.6727C6.7186 23.2995 6.79028 22.9385 6.87967 22.5758C6.89004 22.533 6.9004 22.4901 6.91108 22.446C7.5171 19.9966 8.72191 17.7718 10.4109 15.9447C10.4494 15.9024 10.4879 15.86 10.5276 15.8164C10.8488 15.473 11.202 15.1827 11.5718 14.8977C11.6137 14.8653 11.6556 14.833 11.6988 14.7996C12.4151 14.2652 13.2253 13.8355 14.0751 13.5827C14.115 13.5709 14.155 13.559 14.1962 13.5467C14.7849 13.3815 15.3687 13.3317 15.9767 13.3335Z" stroke="#DF7A00" stroke-width="2"/>
<path d="M29.099 9.88221C29.9766 10.5451 30.4578 11.4921 30.6451 12.5999C30.7347 13.9476 30.569 15.1773 29.7113 16.2403C29.1679 16.8449 28.4678 17.2979 27.663 17.3268C26.5992 17.3438 26.5992 17.3438 26.1582 17.1281C26.0798 17.0907 26.0798 17.0907 25.9998 17.0525C25.1557 16.6097 24.5601 15.8822 24.2483 14.9517C23.8688 13.7382 23.9202 12.4386 24.4314 11.2779C24.8424 10.4735 25.4567 9.83 26.2763 9.4984C27.2264 9.19902 28.2714 9.29565 29.099 9.88221Z" stroke="#DF7A00" stroke-width="2"/>
<path d="M6.43235 9.88221C7.30996 10.5451 7.79116 11.4921 7.97839 12.5999C8.06803 13.9476 7.90228 15.1773 7.04463 16.2403C6.50126 16.8449 5.80118 17.2979 4.99631 17.3268C3.93251 17.3438 3.93251 17.3438 3.49155 17.1281C3.41312 17.0907 3.41312 17.0907 3.33311 17.0525C2.48906 16.6097 1.89345 15.8822 1.58167 14.9517C1.20212 13.7382 1.25353 12.4386 1.7647 11.2779C2.17577 10.4735 2.79003 9.83 3.60962 9.4984C4.55976 9.19902 5.60471 9.29565 6.43235 9.88221Z" stroke="#DF7A00" stroke-width="2"/>
<path d="M22.4323 3.21555C23.31 3.87841 23.7912 4.82544 23.9784 5.93323C24.068 7.28098 23.9023 8.51065 23.0446 9.5736C22.5013 10.1782 21.8012 10.6312 20.9963 10.6601C19.9325 10.6771 19.9325 10.6771 19.4915 10.4614C19.4131 10.424 19.4131 10.424 19.3331 10.3858C18.4891 9.94301 17.8935 9.21549 17.5817 8.28506C17.2021 7.07149 17.2535 5.77196 17.7647 4.61122C18.1758 3.8068 18.79 3.16334 19.6096 2.83174C20.5598 2.53235 21.6047 2.62899 22.4323 3.21555Z" stroke="#DF7A00" stroke-width="2"/>
<path d="M13.099 3.21555C13.9766 3.87841 14.4578 4.82544 14.6451 5.93323C14.7347 7.28098 14.569 8.51065 13.7113 9.5736C13.1679 10.1782 12.4678 10.6312 11.663 10.6601C10.5992 10.6771 10.5992 10.6771 10.1582 10.4614C10.0798 10.424 10.0798 10.424 9.99978 10.3858C9.15573 9.94301 8.56012 9.21549 8.24833 8.28506C7.86879 7.07149 7.9202 5.77196 8.43137 4.61122C8.84244 3.8068 9.4567 3.16334 10.2763 2.83174C11.2264 2.53235 12.2714 2.62899 13.099 3.21555Z" stroke="#DF7A00" stroke-width="2"/>
</svg>
