<svg width="33" height="32" viewBox="0 0 33 32" fill="none" xmlns="http://www.w3.org/2000/svg">
<path d="M16.1999 29.3334C23.5637 29.3334 29.5332 23.3639 29.5332 16.0001C29.5332 8.63628 23.5637 2.66675 16.1999 2.66675C8.83611 2.66675 2.86658 8.63628 2.86658 16.0001C2.86658 23.3639 8.83611 29.3334 16.1999 29.3334Z" stroke="#020126" stroke-width="2" stroke-linecap="round" stroke-linejoin="round"/>
<path d="M16.1999 24.0001C20.6182 24.0001 24.1999 20.4184 24.1999 16.0001C24.1999 11.5818 20.6182 8.00008 16.1999 8.00008C11.7816 8.00008 8.19991 11.5818 8.19991 16.0001C8.19991 20.4184 11.7816 24.0001 16.1999 24.0001Z" stroke="#020126" stroke-width="2" stroke-linecap="round" stroke-linejoin="round"/>
<path d="M16.1999 18.6667C17.6727 18.6667 18.8666 17.4728 18.8666 16.0001C18.8666 14.5273 17.6727 13.3334 16.1999 13.3334C14.7272 13.3334 13.5332 14.5273 13.5332 16.0001C13.5332 17.4728 14.7272 18.6667 16.1999 18.6667Z" stroke="#020126" stroke-width="2" stroke-linecap="round" stroke-linejoin="round"/>
</svg>
